PathFileType	4	(X/Y/Z)	C:/Users/beibeiliu/ov580/test_trc/User2\sequence.34_training_dense_left.trc
DataRate	CameraRate	NumFrames	NumMarkers	Units	OrigDataRate	OrigDataStartFrame	OrigNumFrames
120	120	19	19	mm	120	41	326
Frame#	Time	ThumbCMC			ThumbMCP			ThumbIP			ThumbTip			IndexMCP			IndexPIP			IndexTip			MiddleMCP			MiddlePIP			MiddleTip			RingMCP			RingPIP			RingTip			PinkyMCP			PinkyPIP			PinkyTip			BackHand1			BackHand2			BackHand3	
		X0	Y0	Z0	X1	Y1	Z1	X2	Y2	Z2	X3	Y3	Z3	X4	Y4	Z4	X5	Y5	Z5	X6	Y6	Z6	X7	Y7	Z7	X8	Y8	Z8	X9	Y9	Z9	X10	Y10	Z10	X11	Y11	Z11	X12	Y12	Z12	X13	Y13	Z13	X14	Y14	Z14	X15	Y15	Z15	X16	Y16	Z16	X17	Y17	Z17	X18	Y18	Z18	
40	0.333333	-140.748	-46.1794	83.8229	-121.965	-52.6264	63.3816	-101.324	-59.3434	36.3365	-86.9065	-68.2358	17.0028	-160.197	-40.3372	-1.28803	-152.485	-42.8341	-26.2573	-152.822	-47.3753	-53.7044	-188.953	-43.0327	-6.34951	-189.14	-48.5225	-37.0406	-187.442	-57.9854	-68.3791	-213.778	-51.8296	2.43866	-216.747	-56.4172	-24.3763	-218.197	-66.2188	-55.8191	-230.626	-61.4036	22.9848	-243.435	-66.2012	-1.15383	-248.852	-65.1898	-26.2703	-212.597	-39.1394	55.5946	-210.293	-30.1203	88.9777	-176.692	-27.0261	70.6787	
41	0.341667	-141.124	-41.7223	84.3161	-122.987	-49.1762	66.0401	-100.128	-53.7176	33.1821	-90.3734	-61.1489	13.3213	-158.067	-35.7484	2.00989	-153.148	-36.418	-24.0806	-153.526	-42.3279	-52.9205	-188.747	-39.0033	-7.88896	-187.692	-44.5789	-38.6294	-191.763	-55.8926	-69.1853	-213.897	-48.49	2.32987	-213.263	-53.774	-25.5541	-213.797	-63.8341	-54.996	-233.917	-60.2629	20.7517	-241.315	-64.8754	-4.64565	-250.696	-66.3299	-30.2724	-210.003	-36.7997	56.7788	-207.651	-29.1931	88.5582	-174.392	-24.7545	72.3826	
42	0.35	-142.974	-41.1624	81.677	-118.983	-43.2466	64.3522	-104.95	-49.9798	31.8529	-92.3173	-56.8226	13.902	-155.771	-30.8941	2.82002	-152.154	-33.0535	-28.1618	-150.056	-38.5182	-57.8971	-187.573	-36.36	-9.1735	-189.374	-42.2925	-39.6313	-186.813	-53.8969	-72.4333	-212.326	-47.1781	1.77387	-217.191	-53.6614	-27.616	-213.971	-62.326	-55.6575	-232.663	-59.1288	20.0754	-239.651	-63.2138	-5.84036	-246.4	-64.9173	-29.6887	-208.969	-34.3761	59.25	-209.122	-28.6205	90.1801	-175.582	-23.2886	72.661	
43	0.358333	-141.588	-38.6288	83.4463	-122.592	-41.8462	62.5604	-103.228	-45.8006	36.1131	-89.4534	-52.1052	11.0226	-160.122	-29.2912	-0.103913	-150.788	-28.5757	-24.7807	-150.736	-33.6387	-53.4827	-188.675	-34.3167	-5.31466	-185.557	-38.8423	-41.3106	-188.371	-50.924	-69.4135	-210.677	-44.4073	-1.8671	-214.728	-49.4559	-25.3066	-217.049	-60.3255	-55.8877	-229.413	-55.727	16.8875	-239.257	-61.3458	-5.30323	-245.654	-63.0544	-27.2233	-207.357	-32.2786	55.9096	-212.087	-27.2798	90.0589	-173.632	-21.3148	73.2147	
44	0.366667	-145.376	-39.8203	84.6747	-119.197	-41.0678	62.9404	-99.9201	-42.8465	31.1273	-91.8326	-50.4299	11.6909	-157.269	-28.8492	2.08225	-152.891	-27.9961	-24.9307	-151.696	-33.9166	-56.6577	-185.214	-32.8021	-4.3858	-187.887	-38.3525	-36.9571	-187.312	-49.0386	-70.2188	-212.336	-43.8484	-2.39492	-215.501	-48.2913	-25.0536	-218.016	-59.3742	-55.9741	-228.848	-56.0154	21.23	-241.013	-61.5223	-7.25724	-245.509	-62.807	-32.2463	-207.84	-32.8414	57.9391	-206.66	-26.2066	88.7137	-172.705	-19.7115	69.2337	
45	0.375	-143.047	-39.8181	81.599	-120.053	-42.0084	59.254	-103.519	-47.0617	33.7936	-89.6872	-52.1532	15.6843	-157.243	-29.273	0.243557	-151.535	-29.8258	-28.6421	-150.59	-34.9302	-57.0731	-186.081	-33.7162	-8.70782	-190.415	-40.9119	-42.1636	-189.778	-49.6212	-70.1842	-208.982	-42.7085	-0.598631	-215.039	-49.0959	-25.1377	-218.425	-60.4813	-58.2657	-231.707	-56.4832	17.0285	-242.277	-62.6217	-4.63568	-247.841	-62.7622	-27.0995	-211.585	-33.9129	58.0066	-207.363	-24.7923	90.0347	-174.194	-21.3784	70.6677	
46	0.383333	-142.561	-38.8221	78.4873	-119	-42.8064	60.5933	-103.351	-48.0346	32.8464	-91.9597	-55.4118	10.1875	-158.361	-31.243	0.449041	-155.245	-31.5669	-26.6618	-155.782	-37.8155	-57.2298	-185.898	-34.6899	-9.14524	-188.657	-41.6934	-43.5211	-191.878	-52.8622	-70.4868	-215.809	-46.1013	1.07173	-216.152	-50.707	-26.6145	-222.091	-61.8615	-54.4048	-233.334	-57.9995	16.8751	-239.7	-62.721	-2.23972	-248.72	-66.7164	-26.0632	-208.659	-33.9769	54.9797	-209.684	-27.355	89.1776	-174.081	-22.6053	68.7894	
47	0.391667	-142.706	-41.2163	80.0138	-124.716	-46.745	58.9876	-101.059	-49.0639	30.394	-88.0917	-56.5277	13.6109	-159.302	-33.0887	-3.03558	-153.98	-34.5826	-26.3261	-152.324	-38.1063	-57.2112	-189.054	-36.9882	-6.12562	-193.115	-43.3649	-40.6866	-192.071	-54.2769	-71.5941	-216.06	-48.1226	-2.75835	-217.663	-53.0608	-26.4139	-223.136	-63.0238	-55.9462	-231.574	-59.7365	19.6818	-243.3	-65.6014	-4.58757	-251.175	-68.253	-29.3779	-210.677	-37.2274	58.078	-208.895	-26.4296	85.2364	-175.415	-22.542	68.0626	
48	0.4	-145.486	-42.6514	82.5089	-125.482	-48.5183	60.3099	-101.588	-50.8107	31.5423	-93.0253	-59.5912	10.5105	-160.362	-35.1466	-1.39697	-157.388	-36.3955	-28.8318	-155.3	-40.389	-57.1277	-191.412	-39.6918	-6.84755	-189.732	-45.0555	-42.0691	-190.855	-56.5007	-73.4572	-212.715	-49.5325	0.738388	-222.602	-55.7045	-28.0144	-219.739	-65.3556	-58.7976	-236.046	-61.664	17.2971	-244.1	-66.3988	-7.53745	-251.171	-68.1264	-26.5316	-213.403	-37.2083	57.4277	-211.558	-29.262	84.0634	-180.457	-24.8122	68.9627	
49	0.408333	-143.204	-42.5527	78.5612	-126.709	-47.8853	59.9594	-105.742	-51.8177	32.0103	-91.7067	-58.3639	10.9941	-161.373	-35.9983	-3.85417	-155.861	-37.5748	-31.3764	-153.676	-41.4754	-57.1764	-190.707	-39.2023	-8.93016	-192.914	-46.0669	-40.7803	-197.429	-57.0957	-74.1756	-216.533	-49.1451	-1.08766	-220.488	-55.4273	-29.206	-224.804	-64.2688	-56.1318	-231.144	-60.9333	21.8136	-241.459	-65.7342	-4.80852	-255.567	-66.1862	-27.487	-212.918	-36.0045	53.8292	-209.317	-29.2409	85.5969	-178.687	-25.245	67.0626	
50	0.416667	-145.758	-43.2038	83.102	-125.849	-46.8086	58.826	-107.132	-52.0823	32.4549	-90.2722	-57.2374	13.1908	-160.738	-37.4992	0.929707	-160.665	-37.6162	-31.2083	-155.054	-41.3564	-56.0984	-192.262	-40.9472	-8.3246	-194.52	-46.4921	-41.2252	-198.613	-55.9134	-70.2443	-216	-49.2268	0.864761	-224.339	-56.5746	-28.9635	-225.746	-65.8416	-58.3607	-235.699	-61.9185	17.9951	-246.635	-66.3352	-2.42318	-252.742	-65.8284	-25.2911	-213.565	-36.5643	56.2144	-213.987	-27.9402	84.6582	-180.337	-24.8968	66.4427	
51	0.425	-146.022	-43.8108	82.886	-123.545	-46.8932	60.9622	-108.121	-52.6924	32.1529	-91.1592	-57.127	9.75388	-163.845	-37.4402	-1.88477	-159.83	-38.6158	-30.4154	-158.373	-42.7925	-59.9998	-192.584	-41.4182	-8.01494	-192.568	-45.7623	-38.2713	-199.816	-57.7901	-74.7151	-215.013	-50.0945	-0.851256	-221.391	-56.6971	-28.9855	-227.802	-66.7837	-54.23	-237.939	-63.0578	21.5231	-246.655	-67.6709	-6.2981	-251.893	-69.6336	-28.589	-212.855	-37.9031	54.4253	-215.95	-30.2654	86.0371	-178.937	-24.5105	65.5101	
52	0.433333	-150.919	-43.2666	79.2795	-128.739	-46.823	61.4725	-106.315	-49.3065	26.9619	-93.4469	-56.9243	9.7571	-167.836	-38.0954	-1.4481	-163.35	-39.3678	-29.666	-161.251	-44.5215	-59.5889	-196.307	-41.7555	-11.9738	-194.37	-46.8085	-39.4782	-195.341	-59.1612	-72.2522	-220.481	-53.1303	1.56419	-222.094	-58.849	-27.8665	-227.114	-69.4807	-56.1956	-238.648	-64.8177	20.0535	-247.144	-70.2163	-7.31166	-257.404	-72.1603	-31.0828	-214.188	-39.9379	53.3936	-218.211	-29.2202	88.1414	-180.718	-25.0489	63.4203	
53	0.441667	-149.832	-41.8504	82.1706	-127.75	-43.5643	56.897	-107.137	-47.8033	28.3652	-95.9542	-55.6144	11.6619	-168.592	-37.3501	-0.683177	-163.064	-39.3736	-30.4615	-159.728	-43.8761	-55.7445	-193.09	-41.4526	-11.3982	-195.738	-49.1201	-43.1499	-197.563	-63.3011	-72.0299	-216.173	-52.5232	-1.69902	-222.88	-61.0453	-26.5709	-222.321	-70.7692	-53.7584	-235.551	-64.2671	19.6143	-243.58	-70.9651	-7.9664	-250.808	-76.4003	-31.0164	-219.319	-38.7679	57.7381	-218.229	-30.4852	86.3924	-181.695	-24.6375	63.814	
54	0.45	-151.342	-38.9904	78.6362	-130.872	-41.7283	60.2523	-109.543	-44.5546	30.4683	-97.8073	-51.9891	12.3585	-170.465	-35.5712	-1.11093	-164.736	-38.038	-33.0787	-161.54	-45.0268	-56.0155	-199.198	-41.8595	-8.48766	-195.284	-51.4461	-42.9252	-193.35	-68.9386	-71.3395	-220.779	-54.2978	1.18044	-224.213	-63.8883	-29.3292	-217.535	-77.8699	-53.7171	-236.306	-66.0004	17.5649	-241.811	-73.9124	-9.07927	-240.48	-86.771	-33.1727	-220.581	-40.6354	56.2334	-221.545	-35.2558	89.0172	-184.484	-25.9361	66.9619	
55	0.458333	-155.307	-37.462	80.5743	-131.389	-36.7745	58.0761	-114.543	-40.5133	30.8961	-96.5737	-43.3548	10.2958	-174.364	-34.0473	1.21323	-168.579	-39.2802	-30.5081	-163.429	-51.1264	-56.5895	-197.783	-41.0767	-7.66952	-193.548	-52.8376	-42.3738	-190.398	-77.3369	-63.9099	-217.138	-53.688	2.94914	-219.115	-68.0966	-31.289	-207.963	-87.9237	-49.8923	-235.173	-69.2228	19.372	-234.903	-77.6454	-8.89113	-226.526	-101.21	-32.2816	-218.577	-43.3416	57.4567	-220.516	-35.7168	86.8541	-189.834	-23.0925	70.3733	
56	0.466667	-156.58	-30.7816	79.2205	-133.969	-28.3916	58.4172	-115.211	-28.4924	29.5902	-101.393	-32.7712	10.7032	-175.693	-30.6846	-1.25492	-169.094	-38.8266	-30.3759	-160.74	-57.0889	-51.7329	-199.377	-41.3445	-9.58483	-192.665	-59.789	-41.4267	-178.665	-91.7512	-53.8946	-216.662	-56.3853	2.78313	-212.388	-73.8802	-29.5727	-190.141	-97.5926	-39.2587	-228.432	-72.044	21.459	-226.099	-82.4916	-9.30168	-207.371	-107.356	-23.4203	-223.897	-46.6652	53.6267	-226.388	-38.3337	89.6809	-191.037	-23.395	66.8933	
57	0.475	-160.645	-27.0482	82.6749	-140.875	-22.52	59.544	-124.361	-21.8942	26.6003	-111.887	-24.2594	6.408	-179.072	-29.8338	-3.99953	-174.251	-43.2385	-31.2289	-157.333	-68.118	-43.8482	-201.079	-42.9587	-9.7617	-190.21	-61.392	-37.05	-164.293	-95.8978	-34.8295	-213.811	-59.0094	-3.43893	-202.183	-76.38	-27.7447	-178.294	-98.456	-23.7235	-225.29	-76.0612	18.2195	-214.403	-91.6579	-12.2376	-190.194	-110.188	-14.3727	-222.942	-50.2968	56.5036	-223.915	-38.7681	87.3414	-196.935	-21.9531	69.0279	
58	0.483333	-159.947	-19.2065	81.6065	-143.638	-16.2352	56.4527	-127.634	-12.0058	27.5817	-117.255	-14.6162	1.34347	-182.925	-29.08	-2.04597	-175.019	-45.0357	-29.5984	-150.14	-74.1898	-28.9522	-199.514	-45.7217	-8.45093	-178.908	-69.6699	-33.6548	-153.007	-92.4841	-15.162	-210.827	-62.9926	-1.54355	-192.476	-83.4318	-23.1109	-167.177	-97.5794	-7.78153	-220.104	-79.886	15.2432	-201.681	-93.3991	-8.98574	-173.141	-109.714	1.69223	-219.558	-48.2639	52.7221	-225.009	-42.8967	88.0704	-199.829	-21.3259	66.4188	
